<svg xmlns="http://www.w3.org/2000/svg" xmlns:xlink="http://www.w3.org/1999/xlink" width="340px" height="151px" viewBox="0 0 340 151"><title>loginIcon</title><defs><polygon id="path-1" points="0 0 39.9928405 0 39.9928405 40.4096311 0 40.4096311"></polygon><polygon id="path-3" points="0 0 57.3285119 0 57.3285119 56 0 56"></polygon></defs><g id="loginIcon" stroke="none" fill="none" fill-rule="evenodd" stroke-width="1"><g id="Group-17" transform="translate(8, 48)"><polygon id="Fill-1" fill="#000000" points="110 3 110 53 100.086356 53 100.086356 31.7249284 78.9136442 31.7249284 78.9136442 53 69 53 69 3 78.9136442 3 78.9136442 23.5583025 100.086356 23.5583025 100.086356 3"></polygon><g id="Group-16"><path d="M154.416529,13.4155857 L154.416529,52.5540158 L144.52351,52.5540158 L144.52351,47.6083505 C143.260999,49.3042902 141.612163,50.6353682 139.577001,51.600292 C137.542694,52.564785 135.332552,53.0485393 132.946573,53.0485393 C129.905595,53.0485393 127.216289,52.4015234 124.878227,51.1057685 C122.538454,49.8108752 120.703513,47.9034276 119.370412,45.3829949 C118.03731,42.864716 117.370759,39.8618214 117.370759,36.3760341 L117.370759,13.4155857 L127.193614,13.4155857 L127.193614,34.96311 C127.193614,38.0715431 127.964982,40.462745 129.509002,42.1337001 C131.052593,43.8059475 133.157491,44.6416405 135.823694,44.6416405 C138.535675,44.6416405 140.664531,43.8059475 142.208123,42.1337001 C143.752142,40.462745 144.52351,38.0715431 144.52351,34.96311 L144.52351,13.4155857 L154.416529,13.4155857 Z" id="Fill-2" fill="#000000"></path><path d="M190.585258,26.732439 C189.626075,25.0140992 188.363564,23.7071444 186.79687,22.8115745 C185.228893,21.9177276 183.534279,21.4692965 181.710034,21.4692965 C179.931567,21.4692965 178.259628,21.9289276 176.692934,22.8468976 C175.125384,23.7652983 173.862446,25.096807 172.904546,26.8384083 C171.945363,28.5817328 171.466199,30.6304728 171.466199,32.9850592 C171.466199,35.3405072 171.945363,37.3892472 172.904546,39.1312793 C173.862446,40.874173 175.125384,42.2043894 176.692934,43.1227901 C178.259628,44.0411908 179.931567,44.5003912 181.710034,44.5003912 C183.534279,44.5003912 185.228893,44.0299908 186.79687,43.087467 C188.363564,42.1458047 189.626075,40.8039575 190.585258,39.0606331 C191.543586,37.3190318 192.023605,35.2457379 192.023605,32.8437668 C192.023605,30.4891804 191.543586,28.4525019 190.585258,26.732439 M176.692934,14.5459681 C178.9142,13.3695364 181.452056,12.7798129 184.305647,12.7798129 C187.626422,12.7798129 190.631463,13.6043058 193.321625,15.252861 C196.011359,16.9018468 198.138931,19.243941 199.706481,22.2817279 C201.273175,25.3199456 202.05695,28.841056 202.05695,32.8437668 C202.05695,36.8473391 201.273175,40.3917111 199.706481,43.4760211 C198.138931,46.5611927 196.011359,48.9511023 193.321625,50.6466113 C190.631463,52.3421203 187.626422,53.189444 184.305647,53.189444 C181.404995,53.189444 178.867995,52.6126435 176.692934,51.4590427 C174.517873,50.3054418 172.774915,48.8093791 171.466199,46.9730084 L171.466199,52.5540589 L161.643344,52.5540589 L161.643344,0.275434058 L171.466199,0.275434058 L171.466199,19.1379716 C172.729138,17.2550779 174.470812,15.7236921 176.692934,14.5459681" id="Fill-4" fill="#000000"></path><path d="M213.07241,51.4589996 C210.546533,50.3053987 208.54688,48.7391206 207.073879,46.7610267 C205.600023,44.7829329 204.793146,42.5929005 204.652819,40.1909294 L214.545838,40.1909294 C214.73237,41.6990536 215.469084,42.9461315 216.755981,43.9351784 C218.042022,44.9242253 219.64337,45.4187488 221.562163,45.4187488 C223.432613,45.4187488 224.894918,45.0422562 225.947367,44.2884095 C226.999816,43.5354243 227.52604,42.5696389 227.52604,41.3919149 C227.52604,40.1202832 226.882592,39.1665594 225.59655,38.5307435 C224.309654,37.8949276 222.263796,37.2005271 219.457266,36.4466803 C216.556614,35.7402183 214.183043,35.0104946 212.335696,34.2566479 C210.487493,33.5036627 208.897696,32.3492003 207.564594,30.7949837 C206.231493,29.2403363 205.564942,27.145504 205.564942,24.5070404 C205.564942,22.3415618 206.184004,20.363468 207.424268,18.5731897 C208.66282,16.7833421 210.441288,15.3708487 212.756675,14.3344172 C215.072062,13.2988472 217.79645,12.7797698 220.930694,12.7797698 C225.561469,12.7797698 229.256163,13.945863 232.016488,16.2771879 C234.77553,18.6085128 236.296447,21.752269 236.5771,25.7080259 L227.175224,25.7080259 C227.034897,24.1542401 226.391449,22.9179315 225.245734,21.9995308 C224.098736,21.0811301 222.567551,20.6219297 220.650041,20.6219297 C218.872002,20.6219297 217.50339,20.9518992 216.545491,21.6105459 C215.586308,22.2709156 215.107144,23.1893163 215.107144,24.3661787 C215.107144,25.6847644 215.761716,26.6863036 217.071715,27.3686426 C218.380431,28.0518431 220.415593,28.7462437 223.175918,29.4527057 C225.982448,30.158737 228.297836,30.889753 230.122508,31.6427382 C231.946325,32.3965849 233.524998,33.5622474 234.8581,35.1397255 C236.191202,36.7180652 236.880427,38.8021283 236.927916,41.3919149 C236.927916,43.6525936 236.30757,45.6780721 235.06859,47.4674888 C233.828754,49.2581979 232.05157,50.6590605 229.736182,51.6709382 C227.420795,52.6832467 224.71951,53.1898317 221.632327,53.1898317 C218.450594,53.1898317 215.598287,52.6126005 213.07241,51.4589996" id="Fill-6" fill="#000000"></path><path d="M272.290196,14.793316 C274.581197,16.0895016 276.37036,17.9969492 277.657685,20.5156589 C278.943726,23.0360916 279.587174,26.0613862 279.587174,29.5936966 L279.587174,52.554145 L269.764318,52.554145 L269.764318,30.9364053 C269.764318,27.8275414 268.992523,25.4376319 267.448931,23.7653844 C265.90534,22.0939985 263.800014,21.257444 261.134238,21.257444 C258.420546,21.257444 256.280567,22.0939985 254.714301,23.7653844 C253.146323,25.4376319 252.363832,27.8275414 252.363832,30.9364053 L252.363832,52.554145 L242.540976,52.554145 L242.540976,0.275520212 L252.363832,0.275520212 L252.363832,18.2903033 C253.62677,16.5952251 255.310688,15.2650087 257.415158,14.2992233 C259.520056,13.3338687 261.858546,12.8505453 264.431911,12.8505453 C267.378768,12.8505453 269.997911,13.4984227 272.290196,14.793316" id="Fill-8" fill="#000000"></path><g id="Group-12" transform="translate(284.0072, 12.78)"><mask id="mask-2" fill="white"><use xlink:href="#path-1"></use></mask><g id="Clip-11"></g><path d="M24.7325468,30.4838388 C26.2992409,29.6132535 27.5502004,28.3058679 28.4862809,26.5629743 C29.4215057,24.8209422 29.889546,22.7019867 29.889546,20.2052463 C29.889546,16.4846896 28.917956,13.6235182 26.9777709,11.6213012 C25.0363024,9.61994586 22.6627309,8.6188374 19.8562007,8.6188374 C17.0496706,8.6188374 14.6992016,9.61994586 12.8047937,11.6213012 C10.9103859,13.6235182 9.96318199,16.4846896 9.96318199,20.2052463 C9.96318199,23.925803 10.8864277,26.7874052 12.7346305,28.7883298 C14.5815498,30.7909775 16.9093441,31.7907937 19.7158742,31.7907937 C21.4930581,31.7907937 23.1649971,31.3557164 24.7325468,30.4838388 M9.61236572,37.9021215 C6.61844836,36.2307356 4.26797937,33.8640876 2.56095875,30.8017468 C0.853082484,27.741129 0,24.2088186 0,20.2052463 C0,16.2021048 0.877040668,12.6697944 2.631122,9.60788431 C4.38520334,6.54683581 6.7818774,4.18018783 9.82285548,2.50794039 C12.8629779,0.83655449 16.2539166,0 19.9965272,0 C23.7382822,0 27.1292209,0.83655449 30.170199,2.50794039 C33.2098936,4.18018783 35.6078511,6.54683581 37.3623603,9.60788431 C39.1160138,12.6697944 39.9930545,16.2021048 39.9930545,20.2052463 C39.9930545,24.2088186 39.0916278,27.741129 37.2917692,30.8017468 C35.4906271,33.8640876 33.0580158,36.2307356 29.9947908,37.9021215 C26.9307102,39.5743689 23.5046899,40.4096311 19.7158742,40.4096311 C15.9728358,40.4096311 12.6049996,39.5743689 9.61236572,37.9021215" id="Fill-10" fill="#000000" mask="url(#mask-2)"></path></g><g id="Group-15"><mask id="mask-4" fill="white"><use xlink:href="#path-3"></use></mask><g id="Clip-14"></g><path d="M28.4584723,33.7443336 C17.7029589,33.7443336 8.98431904,25.1965732 8.98431904,14.6517651 L14.1271999,14.6517651 C14.1468799,22.372448 20.5355864,28.6250682 28.415262,28.6250682 C36.2945098,28.6250682 42.6832163,22.372448 42.7028962,14.6517651 L47.9326255,14.6517651 C47.9326255,25.1965732 39.2139856,33.7443336 28.4584723,33.7443336 M49.6002863,0 L7.72779784,0 C3.45981848,0 0,3.48363345 0,7.78142137 L0,43.0769562 C0,50.2139463 5.74611376,56.0000431 12.8347415,56.0000431 L44.4937705,56.0000431 C51.5819704,56.0000431 57.3285119,50.2139463 57.3285119,43.0769562 L57.3285119,7.78142137 C57.3285119,3.48363345 53.8682656,0 49.6002863,0" id="Fill-13" fill="#1594FF" mask="url(#mask-4)"></path></g></g></g></g></svg>