<?xml version="1.0" encoding="UTF-8"?>
<svg width="758px" height="130px" viewBox="0 0 758 130" version="1.1" xmlns="http://www.w3.org/2000/svg" xmlns:xlink="http://www.w3.org/1999/xlink">
    <title>Group 17</title>
    <defs>
        <polygon id="path-1" points="0 0 93.4795 0 93.4795 93.808 0 93.808"></polygon>
        <polygon id="path-3" points="0 0 134 0 134 129.9999 0 129.9999"></polygon>
    </defs>
    <g id="Page-1" stroke="none" stroke-width="1" fill="none" fill-rule="evenodd">
        <g id="logoFooter-Copy" transform="translate(-100, -37)">
            <g id="Group-17" transform="translate(100, 36.9999)">
                <polygon id="Fill-1" fill="#FFFFFF" points="258.2715 7.5282 258.2715 122.0002 235.3115 122.0002 235.3115 73.2922 186.2755 73.2922 186.2755 122.0002 163.3155 122.0002 163.3155 7.5282 186.2755 7.5282 186.2755 54.5952 235.3115 54.5952 235.3115 7.5282"></polygon>
                <g id="Group-16" transform="translate(0, 0.0001)">
                    <path d="M360.9341,31.1433 L360.9341,122.0003 L337.8101,122.0003 L337.8101,110.5193 C334.8591,114.4563 331.0051,117.5463 326.2481,119.7863 C321.4931,122.0253 316.3271,123.1483 310.7501,123.1483 C303.6421,123.1483 297.3561,121.6463 291.8911,118.6383 C286.4221,115.6323 282.1331,111.2043 279.0171,105.3533 C275.9011,99.5073 274.3431,92.5363 274.3431,84.4443 L274.3431,31.1433 L297.3031,31.1433 L297.3031,81.1643 C297.3031,88.3803 299.1061,93.9313 302.7151,97.8103 C306.3231,101.6923 311.2431,103.6323 317.4751,103.6323 C323.8141,103.6323 328.7901,101.6923 332.3981,97.8103 C336.0071,93.9313 337.8101,88.3803 337.8101,81.1643 L337.8101,31.1433 L360.9341,31.1433 Z" id="Fill-2" fill="#FFFFFF"></path>
                    <path d="M445.4751,62.0574 C443.2331,58.0684 440.2821,55.0344 436.6201,52.9554 C432.9551,50.8804 428.9941,49.8394 424.7301,49.8394 C420.5731,49.8394 416.6651,50.9064 413.0031,53.0374 C409.3391,55.1694 406.3871,58.2604 404.1481,62.3034 C401.9061,66.3504 400.7861,71.1064 400.7861,76.5724 C400.7861,82.0404 401.9061,86.7964 404.1481,90.8404 C406.3871,94.8864 409.3391,97.9744 413.0031,100.1064 C416.6651,102.2384 420.5731,103.3044 424.7301,103.3044 C428.9941,103.3044 432.9551,102.2124 436.6201,100.0244 C440.2821,97.8384 443.2331,94.7234 445.4751,90.6764 C447.7151,86.6334 448.8371,81.8204 448.8371,76.2444 C448.8371,70.7784 447.7151,66.0504 445.4751,62.0574 M413.0031,33.7674 C418.1951,31.0364 424.1271,29.6674 430.7971,29.6674 C438.5591,29.6674 445.5831,31.5814 451.8711,35.4084 C458.1581,39.2364 463.1311,44.6734 466.7951,51.7254 C470.4571,58.7784 472.2891,66.9524 472.2891,76.2444 C472.2891,85.5384 470.4571,93.7664 466.7951,100.9264 C463.1311,108.0884 458.1581,113.6364 451.8711,117.5724 C445.5831,121.5084 438.5591,123.4754 430.7971,123.4754 C424.0171,123.4754 418.0871,122.1364 413.0031,119.4584 C407.9191,116.7804 403.8451,113.3074 400.7861,109.0444 L400.7861,122.0004 L377.8261,122.0004 L377.8261,0.6394 L400.7861,0.6394 L400.7861,44.4274 C403.7381,40.0564 407.8091,36.5014 413.0031,33.7674" id="Fill-4" fill="#FFFFFF"></path>
                    <path d="M498.0367,119.4583 C492.1327,116.7803 487.4587,113.1443 484.0157,108.5523 C480.5707,103.9603 478.6847,98.8763 478.3567,93.3003 L501.4807,93.3003 C501.9167,96.8013 503.6387,99.6963 506.6467,101.9923 C509.6527,104.2883 513.3957,105.4363 517.8807,105.4363 C522.2527,105.4363 525.6707,104.5623 528.1307,102.8123 C530.5907,101.0643 531.8207,98.8223 531.8207,96.0883 C531.8207,93.1363 530.3167,90.9223 527.3107,89.4463 C524.3027,87.9703 519.5207,86.3583 512.9607,84.6083 C506.1807,82.9683 500.6327,81.2743 496.3147,79.5243 C491.9947,77.7763 488.2787,75.0963 485.1627,71.4883 C482.0467,67.8793 480.4887,63.0163 480.4887,56.8913 C480.4887,51.8643 481.9357,47.2723 484.8347,43.1163 C487.7297,38.9613 491.8867,35.6823 497.2987,33.2763 C502.7107,30.8723 509.0787,29.6673 516.4047,29.6673 C527.2287,29.6673 535.8647,32.3743 542.3167,37.7863 C548.7657,43.1983 552.3207,50.4963 552.9767,59.6793 L531.0007,59.6793 C530.6727,56.0723 529.1687,53.2023 526.4907,51.0703 C523.8097,48.9383 520.2307,47.8723 515.7487,47.8723 C511.5927,47.8723 508.3937,48.6383 506.1547,50.1673 C503.9127,51.7003 502.7927,53.8323 502.7927,56.5643 C502.7927,59.6253 504.3227,61.9503 507.3847,63.5343 C510.4437,65.1203 515.2007,66.7323 521.6527,68.3723 C528.2127,70.0113 533.6247,71.7083 537.8897,73.4563 C542.1527,75.2063 545.8427,77.9123 548.9587,81.5743 C552.0747,85.2383 553.6857,90.0763 553.7967,96.0883 C553.7967,101.3363 552.3467,106.0383 549.4507,110.1923 C546.5527,114.3493 542.3987,117.6013 536.9867,119.9503 C531.5747,122.3003 525.2607,123.4763 518.0447,123.4763 C510.6077,123.4763 503.9407,122.1363 498.0367,119.4583" id="Fill-6" fill="#FFFFFF"></path>
                    <path d="M636.4527,34.3416 C641.8077,37.3506 645.9897,41.7786 648.9987,47.6256 C652.0047,53.4766 653.5087,60.4996 653.5087,68.6996 L653.5087,122.0006 L630.5487,122.0006 L630.5487,71.8166 C630.5487,64.5996 628.7447,59.0516 625.1367,55.1696 C621.5287,51.2896 616.6077,49.3476 610.3767,49.3476 C604.0337,49.3476 599.0317,51.2896 595.3707,55.1696 C591.7057,59.0516 589.8767,64.5996 589.8767,71.8166 L589.8767,122.0006 L566.9167,122.0006 L566.9167,0.6396 L589.8767,0.6396 L589.8767,42.4596 C592.8287,38.5246 596.7647,35.4366 601.6837,33.1946 C606.6037,30.9536 612.0697,29.8316 618.0847,29.8316 C624.9727,29.8316 631.0947,31.3356 636.4527,34.3416" id="Fill-8" fill="#FFFFFF"></path>
                    <g id="Group-12" transform="translate(663.84, 29.6679)">
                        <mask id="mask-2" fill="white">
                            <use xlink:href="#path-1"></use>
                        </mask>
                        <g id="Clip-11"></g>
                        <path d="M57.81,70.766 C61.472,68.745 64.396,65.71 66.584,61.664 C68.77,57.62 69.864,52.701 69.864,46.905 C69.864,38.268 67.593,31.626 63.058,26.978 C58.52,22.332 52.972,20.008 46.412,20.008 C39.852,20.008 34.358,22.332 29.93,26.978 C25.502,31.626 23.288,38.268 23.288,46.905 C23.288,55.542 25.446,62.185 29.766,66.83 C34.083,71.479 39.524,73.8 46.084,73.8 C50.238,73.8 54.146,72.79 57.81,70.766 M22.468,87.987 C15.47,84.107 9.976,78.613 5.986,71.504 C1.994,64.399 0,56.199 0,46.905 C0,37.612 2.05,29.412 6.15,22.304 C10.25,15.198 15.852,9.704 22.96,5.822 C30.066,1.942 37.992,0 46.74,0 C55.486,0 63.412,1.942 70.52,5.822 C77.625,9.704 83.23,15.198 87.331,22.304 C91.43,29.412 93.48,37.612 93.48,46.905 C93.48,56.199 91.373,64.399 87.166,71.504 C82.956,78.613 77.27,84.107 70.11,87.987 C62.948,91.869 54.94,93.808 46.084,93.808 C37.335,93.808 29.463,91.869 22.468,87.987" id="Fill-10" fill="#FFFFFF" mask="url(#mask-2)"></path>
                    </g>
                    <g id="Group-15" transform="translate(0, 0)">
                        <mask id="mask-4" fill="white">
                            <use xlink:href="#path-3"></use>
                        </mask>
                        <g id="Clip-14"></g>
                        <path d="M66.519,78.335 C41.379,78.335 21,58.492 21,34.013 L33.021,34.013 C33.067,51.936 48,66.451 66.418,66.451 C84.835,66.451 99.768,51.936 99.814,34.013 L112.038,34.013 C112.038,58.492 91.659,78.335 66.519,78.335 M115.936,0 L18.063,0 C8.087,0 0,8.087 0,18.064 L0,100 C0,116.568 13.431,130 30,130 L104,130 C120.568,130 134,116.568 134,100 L134,18.064 C134,8.087 125.912,0 115.936,0" id="Fill-13" fill="#1594FF" mask="url(#mask-4)"></path>
                    </g>
                </g>
            </g>
        </g>
    </g>
</svg>