<?xml version="1.0" encoding="UTF-8"?>
<svg width="492px" height="478px" viewBox="0 0 492 478" version="1.1" xmlns="http://www.w3.org/2000/svg" xmlns:xlink="http://www.w3.org/1999/xlink">
    <title>Group</title>
    <defs>
        <polygon id="path-1" points="0 0 492 0 492 478 0 478"></polygon>
    </defs>
    <g id="Page-1" stroke="none" stroke-width="1" fill="none" fill-rule="evenodd">
        <g id="sidebarAdminLogo-Copy-2" transform="translate(-10, -17)">
            <g id="Group" transform="translate(10, 17)">
                <rect id="Rectangle" fill="#FFFFFF" x="22" y="84" width="427" height="251"></rect>
                <g id="Group-3">
                    <mask id="mask-2" fill="white">
                        <use xlink:href="#path-1"></use>
                    </mask>
                    <g id="Clip-2"></g>
                    <path d="M244.23394,288.031769 C151.928866,288.031769 77.1044776,215.070585 77.1044776,125.063185 L121.241284,125.063185 C121.410179,190.964677 176.238806,244.335215 243.863104,244.335215 C311.483731,244.335215 366.312358,190.964677 366.481254,125.063185 L411.363403,125.063185 C411.363403,215.070585 336.539015,288.031769 244.23394,288.031769 M425.675463,0 L66.3208657,0 C29.6925672,0 0,29.7352769 0,66.4199385 L0,367.692308 C0,428.611569 49.3138209,478 110.149254,478 L381.850746,478 C442.682507,478 492,428.611569 492,367.692308 L492,66.4199385 C492,29.7352769 462.303761,0 425.675463,0" id="Fill-1" fill="#1594FF" mask="url(#mask-2)"></path>
                </g>
            </g>
        </g>
    </g>
</svg>